<svg width="196" height="196" viewBox="0 0 196 196" fill="none" xmlns="http://www.w3.org/2000/svg">
<g clip-path="url(#clip0_22_44)">
<rect width="196" height="196" fill="#1ED760"/>
<path d="M213.796 154.004C183.263 135.875 132.215 133.967 103.113 143.031C98.3417 144.463 93.5709 141.6 92.1396 137.306C90.7084 132.535 93.5709 127.765 97.8646 126.333C131.738 116.315 187.556 118.223 222.86 139.215C227.154 141.6 228.585 147.325 226.2 151.619C223.815 154.958 218.09 156.39 213.796 154.004ZM212.842 180.721C210.456 184.06 206.163 185.492 202.823 183.106C177.06 167.363 137.94 162.592 107.883 172.133C104.067 173.088 99.773 171.179 98.8188 167.363C97.8646 163.546 99.773 159.252 103.59 158.298C138.417 147.802 181.354 153.05 210.933 171.179C213.796 172.61 215.227 177.381 212.842 180.721ZM201.392 206.96C199.483 209.823 196.144 210.777 193.281 208.869C170.858 195.033 142.71 192.171 109.315 199.804C105.975 200.758 103.113 198.373 102.158 195.51C101.204 192.171 103.59 189.308 106.452 188.354C142.71 180.244 174.198 183.583 199.006 198.85C202.346 200.281 202.823 204.098 201.392 206.96ZM157.5 69.0834C144.97 69.0834 132.562 71.5514 120.986 76.3465C109.409 81.1417 98.8905 88.17 90.0303 97.0303C72.1362 114.924 62.0834 139.194 62.0834 164.5C62.0834 189.806 72.1362 214.076 90.0303 231.97C98.8905 240.83 109.409 247.858 120.986 252.654C132.562 257.449 144.97 259.917 157.5 259.917C182.806 259.917 207.076 249.864 224.97 231.97C242.864 214.076 252.917 189.806 252.917 164.5C252.917 151.97 250.449 139.562 245.654 127.986C240.858 116.409 233.83 105.891 224.97 97.0303C216.11 88.17 205.591 81.1417 194.014 76.3465C182.438 71.5514 170.03 69.0834 157.5 69.0834Z" fill="black" fill-opacity="0.15"/>
<path d="M107.667 131.833H127V64.1666H107.667M69 131.833H88.3333V64.1666H69V131.833Z" fill="black"/>
</g>
<defs>
<clipPath id="clip0_22_44">
<rect width="196" height="196" fill="white"/>
</clipPath>
</defs>
</svg>
